<mxfile host="Electron" modified="2023-07-05T14:35:50.852Z" agent="Mozilla/5.0 (Windows NT 10.0; Win64; x64) AppleWebKit/537.36 (KHTML, like Gecko) draw.io/21.5.0 Chrome/112.0.5615.204 Electron/24.5.1 Safari/537.36" etag="YqWj4kuAeb3EgS1xpJGw" version="21.5.0" type="device">
  <diagram name="Page-1" id="NV0_F-gBZP4ud1GldB0P">
    <mxGraphModel dx="639" dy="717" grid="1" gridSize="10" guides="1" tooltips="1" connect="1" arrows="1" fold="1" page="1" pageScale="1" pageWidth="827" pageHeight="1169" math="0" shadow="0">
      <root>
        <mxCell id="0" />
        <mxCell id="1" parent="0" />
        <mxCell id="77di7s147n0UMXgqI7TV-1" value="" style="ellipse;html=1;shape=startState;fillColor=#000000;strokeColor=#ff0000;" parent="1" vertex="1">
          <mxGeometry x="110" y="30" width="30" height="30" as="geometry" />
        </mxCell>
        <mxCell id="77di7s147n0UMXgqI7TV-2" value="" style="edgeStyle=orthogonalEdgeStyle;html=1;verticalAlign=bottom;endArrow=open;endSize=8;strokeColor=#ff0000;rounded=0;" parent="1" source="77di7s147n0UMXgqI7TV-1" edge="1">
          <mxGeometry relative="1" as="geometry">
            <mxPoint x="125" y="120" as="targetPoint" />
          </mxGeometry>
        </mxCell>
        <mxCell id="77di7s147n0UMXgqI7TV-5" value="" style="edgeStyle=orthogonalEdgeStyle;rounded=0;orthogonalLoop=1;jettySize=auto;html=1;" parent="1" edge="1">
          <mxGeometry relative="1" as="geometry">
            <mxPoint x="125" y="170" as="sourcePoint" />
            <mxPoint x="125" y="240" as="targetPoint" />
          </mxGeometry>
        </mxCell>
        <mxCell id="MO8dAYG7gL2RPaPPFIin-16" value="" style="edgeStyle=orthogonalEdgeStyle;rounded=0;orthogonalLoop=1;jettySize=auto;html=1;" edge="1" parent="1">
          <mxGeometry relative="1" as="geometry">
            <mxPoint x="125" y="290" as="sourcePoint" />
            <mxPoint x="125" y="340" as="targetPoint" />
          </mxGeometry>
        </mxCell>
        <mxCell id="77di7s147n0UMXgqI7TV-13" value="" style="edgeStyle=orthogonalEdgeStyle;rounded=0;orthogonalLoop=1;jettySize=auto;html=1;exitX=1;exitY=0.5;exitDx=0;exitDy=0;" parent="1" target="77di7s147n0UMXgqI7TV-7" edge="1">
          <mxGeometry relative="1" as="geometry">
            <mxPoint x="180" y="145" as="sourcePoint" />
          </mxGeometry>
        </mxCell>
        <mxCell id="MO8dAYG7gL2RPaPPFIin-6" value="" style="edgeStyle=orthogonalEdgeStyle;rounded=0;orthogonalLoop=1;jettySize=auto;html=1;entryX=0.5;entryY=0;entryDx=0;entryDy=0;exitX=0.682;exitY=1;exitDx=0;exitDy=0;exitPerimeter=0;" edge="1" parent="1" source="77di7s147n0UMXgqI7TV-7" target="MO8dAYG7gL2RPaPPFIin-5">
          <mxGeometry relative="1" as="geometry">
            <mxPoint x="490" y="180" as="sourcePoint" />
            <mxPoint x="484.5" y="690" as="targetPoint" />
            <Array as="points" />
          </mxGeometry>
        </mxCell>
        <mxCell id="77di7s147n0UMXgqI7TV-7" value="Ecrire ordre des nombres = A&amp;lt;=B&amp;lt;=C" style="html=1;whiteSpace=wrap;" parent="1" vertex="1">
          <mxGeometry x="410" y="120" width="110" height="50" as="geometry" />
        </mxCell>
        <mxCell id="77di7s147n0UMXgqI7TV-8" value="Ecrire ordre des nombre A&amp;lt;=C&amp;lt;=B" style="html=1;whiteSpace=wrap;" parent="1" vertex="1">
          <mxGeometry x="290" y="250" width="110" height="50" as="geometry" />
        </mxCell>
        <mxCell id="MO8dAYG7gL2RPaPPFIin-5" value="" style="ellipse;html=1;shape=endState;fillColor=#000000;strokeColor=#ff0000;" vertex="1" parent="1">
          <mxGeometry x="470" y="680" width="30" height="30" as="geometry" />
        </mxCell>
        <mxCell id="MO8dAYG7gL2RPaPPFIin-9" value="" style="endArrow=classic;html=1;rounded=0;exitX=1;exitY=0.5;exitDx=0;exitDy=0;" edge="1" parent="1" source="77di7s147n0UMXgqI7TV-8">
          <mxGeometry width="50" height="50" relative="1" as="geometry">
            <mxPoint x="390" y="330" as="sourcePoint" />
            <mxPoint x="490" y="275" as="targetPoint" />
          </mxGeometry>
        </mxCell>
        <mxCell id="MO8dAYG7gL2RPaPPFIin-10" value="Oui" style="text;html=1;align=center;verticalAlign=middle;resizable=0;points=[];autosize=1;strokeColor=none;fillColor=none;" vertex="1" parent="1">
          <mxGeometry x="210" y="240" width="40" height="30" as="geometry" />
        </mxCell>
        <mxCell id="MO8dAYG7gL2RPaPPFIin-11" value="Oui" style="text;html=1;align=center;verticalAlign=middle;resizable=0;points=[];autosize=1;strokeColor=none;fillColor=none;" vertex="1" parent="1">
          <mxGeometry x="280" y="110" width="40" height="30" as="geometry" />
        </mxCell>
        <mxCell id="MO8dAYG7gL2RPaPPFIin-14" value="Non" style="text;html=1;align=center;verticalAlign=middle;resizable=0;points=[];autosize=1;strokeColor=none;fillColor=none;" vertex="1" parent="1">
          <mxGeometry x="70" y="200" width="50" height="30" as="geometry" />
        </mxCell>
        <mxCell id="MO8dAYG7gL2RPaPPFIin-18" value="" style="edgeStyle=orthogonalEdgeStyle;rounded=0;orthogonalLoop=1;jettySize=auto;html=1;exitX=1;exitY=0.5;exitDx=0;exitDy=0;" edge="1" parent="1" source="MO8dAYG7gL2RPaPPFIin-47" target="MO8dAYG7gL2RPaPPFIin-17">
          <mxGeometry relative="1" as="geometry">
            <mxPoint x="180" y="365" as="sourcePoint" />
          </mxGeometry>
        </mxCell>
        <mxCell id="MO8dAYG7gL2RPaPPFIin-22" value="" style="edgeStyle=orthogonalEdgeStyle;rounded=0;orthogonalLoop=1;jettySize=auto;html=1;" edge="1" parent="1">
          <mxGeometry relative="1" as="geometry">
            <mxPoint x="125" y="390" as="sourcePoint" />
            <mxPoint x="125" y="430" as="targetPoint" />
          </mxGeometry>
        </mxCell>
        <mxCell id="MO8dAYG7gL2RPaPPFIin-17" value="Ecrire ordre des nombres B&amp;lt;=A&amp;lt;=C" style="html=1;whiteSpace=wrap;" vertex="1" parent="1">
          <mxGeometry x="290" y="345" width="110" height="50" as="geometry" />
        </mxCell>
        <mxCell id="MO8dAYG7gL2RPaPPFIin-19" value="Oui" style="text;html=1;align=center;verticalAlign=middle;resizable=0;points=[];autosize=1;strokeColor=none;fillColor=none;" vertex="1" parent="1">
          <mxGeometry x="210" y="338" width="40" height="30" as="geometry" />
        </mxCell>
        <mxCell id="MO8dAYG7gL2RPaPPFIin-20" value="" style="endArrow=classic;html=1;rounded=0;exitX=1;exitY=0.5;exitDx=0;exitDy=0;" edge="1" parent="1" source="MO8dAYG7gL2RPaPPFIin-17">
          <mxGeometry width="50" height="50" relative="1" as="geometry">
            <mxPoint x="390" y="330" as="sourcePoint" />
            <mxPoint x="480" y="370" as="targetPoint" />
          </mxGeometry>
        </mxCell>
        <mxCell id="MO8dAYG7gL2RPaPPFIin-26" value="" style="edgeStyle=orthogonalEdgeStyle;rounded=0;orthogonalLoop=1;jettySize=auto;html=1;" edge="1" parent="1">
          <mxGeometry relative="1" as="geometry">
            <mxPoint x="125" y="480" as="sourcePoint" />
            <mxPoint x="125" y="520" as="targetPoint" />
          </mxGeometry>
        </mxCell>
        <mxCell id="MO8dAYG7gL2RPaPPFIin-39" value="" style="edgeStyle=orthogonalEdgeStyle;rounded=0;orthogonalLoop=1;jettySize=auto;html=1;exitX=1;exitY=0.5;exitDx=0;exitDy=0;" edge="1" parent="1" source="MO8dAYG7gL2RPaPPFIin-48" target="MO8dAYG7gL2RPaPPFIin-38">
          <mxGeometry relative="1" as="geometry">
            <mxPoint x="180" y="455" as="sourcePoint" />
          </mxGeometry>
        </mxCell>
        <mxCell id="MO8dAYG7gL2RPaPPFIin-23" value="Non" style="text;html=1;align=center;verticalAlign=middle;resizable=0;points=[];autosize=1;strokeColor=none;fillColor=none;" vertex="1" parent="1">
          <mxGeometry x="75" y="308" width="50" height="30" as="geometry" />
        </mxCell>
        <mxCell id="MO8dAYG7gL2RPaPPFIin-24" value="Non" style="text;html=1;align=center;verticalAlign=middle;resizable=0;points=[];autosize=1;strokeColor=none;fillColor=none;" vertex="1" parent="1">
          <mxGeometry x="75" y="398" width="50" height="30" as="geometry" />
        </mxCell>
        <mxCell id="MO8dAYG7gL2RPaPPFIin-28" value="" style="edgeStyle=orthogonalEdgeStyle;rounded=0;orthogonalLoop=1;jettySize=auto;html=1;exitX=1;exitY=0.5;exitDx=0;exitDy=0;" edge="1" parent="1" source="MO8dAYG7gL2RPaPPFIin-49" target="MO8dAYG7gL2RPaPPFIin-27">
          <mxGeometry relative="1" as="geometry">
            <mxPoint x="180" y="545" as="sourcePoint" />
          </mxGeometry>
        </mxCell>
        <mxCell id="MO8dAYG7gL2RPaPPFIin-31" value="" style="edgeStyle=orthogonalEdgeStyle;rounded=0;orthogonalLoop=1;jettySize=auto;html=1;entryX=0.425;entryY=0.013;entryDx=0;entryDy=0;entryPerimeter=0;" edge="1" parent="1" target="MO8dAYG7gL2RPaPPFIin-50">
          <mxGeometry relative="1" as="geometry">
            <mxPoint x="125" y="570" as="sourcePoint" />
            <mxPoint x="125" y="630" as="targetPoint" />
          </mxGeometry>
        </mxCell>
        <mxCell id="MO8dAYG7gL2RPaPPFIin-27" value="Ecrire ordre des nombres C&amp;lt;=A&amp;lt;=B" style="html=1;whiteSpace=wrap;" vertex="1" parent="1">
          <mxGeometry x="290" y="545" width="110" height="50" as="geometry" />
        </mxCell>
        <mxCell id="MO8dAYG7gL2RPaPPFIin-29" value="" style="endArrow=classic;html=1;rounded=0;exitX=1;exitY=0.5;exitDx=0;exitDy=0;" edge="1" parent="1" source="MO8dAYG7gL2RPaPPFIin-27">
          <mxGeometry width="50" height="50" relative="1" as="geometry">
            <mxPoint x="390" y="630" as="sourcePoint" />
            <mxPoint x="480" y="570" as="targetPoint" />
          </mxGeometry>
        </mxCell>
        <mxCell id="MO8dAYG7gL2RPaPPFIin-33" value="" style="edgeStyle=orthogonalEdgeStyle;rounded=0;orthogonalLoop=1;jettySize=auto;html=1;exitX=1;exitY=0.5;exitDx=0;exitDy=0;" edge="1" parent="1" source="MO8dAYG7gL2RPaPPFIin-50" target="MO8dAYG7gL2RPaPPFIin-32">
          <mxGeometry relative="1" as="geometry">
            <mxPoint x="180" y="655" as="sourcePoint" />
          </mxGeometry>
        </mxCell>
        <mxCell id="MO8dAYG7gL2RPaPPFIin-36" value="" style="edgeStyle=orthogonalEdgeStyle;rounded=0;orthogonalLoop=1;jettySize=auto;html=1;" edge="1" parent="1" source="MO8dAYG7gL2RPaPPFIin-32" target="MO8dAYG7gL2RPaPPFIin-5">
          <mxGeometry relative="1" as="geometry" />
        </mxCell>
        <mxCell id="MO8dAYG7gL2RPaPPFIin-32" value="Ecrire ordre des nombres C&amp;lt;=B&amp;lt;=A" style="html=1;whiteSpace=wrap;" vertex="1" parent="1">
          <mxGeometry x="290" y="670" width="110" height="50" as="geometry" />
        </mxCell>
        <mxCell id="MO8dAYG7gL2RPaPPFIin-38" value="Ecrire ordre des nombres B&amp;lt;=C&amp;lt;=A" style="html=1;whiteSpace=wrap;" vertex="1" parent="1">
          <mxGeometry x="290" y="443" width="110" height="50" as="geometry" />
        </mxCell>
        <mxCell id="MO8dAYG7gL2RPaPPFIin-40" value="" style="endArrow=classic;html=1;rounded=0;exitX=1;exitY=0.5;exitDx=0;exitDy=0;" edge="1" parent="1" source="MO8dAYG7gL2RPaPPFIin-38">
          <mxGeometry width="50" height="50" relative="1" as="geometry">
            <mxPoint x="390" y="530" as="sourcePoint" />
            <mxPoint x="480" y="468" as="targetPoint" />
          </mxGeometry>
        </mxCell>
        <mxCell id="MO8dAYG7gL2RPaPPFIin-41" value="Oui" style="text;html=1;align=center;verticalAlign=middle;resizable=0;points=[];autosize=1;strokeColor=none;fillColor=none;" vertex="1" parent="1">
          <mxGeometry x="210" y="428" width="40" height="30" as="geometry" />
        </mxCell>
        <mxCell id="MO8dAYG7gL2RPaPPFIin-42" value="Oui" style="text;html=1;align=center;verticalAlign=middle;resizable=0;points=[];autosize=1;strokeColor=none;fillColor=none;" vertex="1" parent="1">
          <mxGeometry x="210" y="508" width="40" height="30" as="geometry" />
        </mxCell>
        <mxCell id="MO8dAYG7gL2RPaPPFIin-43" value="Oui" style="text;html=1;align=center;verticalAlign=middle;resizable=0;points=[];autosize=1;strokeColor=none;fillColor=none;" vertex="1" parent="1">
          <mxGeometry x="210" y="638" width="40" height="30" as="geometry" />
        </mxCell>
        <mxCell id="MO8dAYG7gL2RPaPPFIin-44" value="Non" style="text;html=1;align=center;verticalAlign=middle;resizable=0;points=[];autosize=1;strokeColor=none;fillColor=none;" vertex="1" parent="1">
          <mxGeometry x="70" y="500" width="50" height="30" as="geometry" />
        </mxCell>
        <mxCell id="MO8dAYG7gL2RPaPPFIin-45" value="Non" style="text;html=1;align=center;verticalAlign=middle;resizable=0;points=[];autosize=1;strokeColor=none;fillColor=none;" vertex="1" parent="1">
          <mxGeometry x="70" y="608" width="50" height="30" as="geometry" />
        </mxCell>
        <mxCell id="MO8dAYG7gL2RPaPPFIin-53" value="" style="edgeStyle=orthogonalEdgeStyle;rounded=0;orthogonalLoop=1;jettySize=auto;html=1;entryX=-0.055;entryY=0.58;entryDx=0;entryDy=0;entryPerimeter=0;" edge="1" parent="1" source="MO8dAYG7gL2RPaPPFIin-46" target="77di7s147n0UMXgqI7TV-8">
          <mxGeometry relative="1" as="geometry" />
        </mxCell>
        <mxCell id="MO8dAYG7gL2RPaPPFIin-46" value="A&amp;lt;=C&amp;lt;=B" style="rhombus;whiteSpace=wrap;html=1;fillColor=#fff2cc;strokeColor=#d6b656;" vertex="1" parent="1">
          <mxGeometry x="85" y="240" width="80" height="80" as="geometry" />
        </mxCell>
        <mxCell id="MO8dAYG7gL2RPaPPFIin-47" value="B&amp;lt;=A&amp;lt;=C" style="rhombus;whiteSpace=wrap;html=1;fillColor=#fff2cc;strokeColor=#d6b656;" vertex="1" parent="1">
          <mxGeometry x="85" y="330" width="80" height="80" as="geometry" />
        </mxCell>
        <mxCell id="MO8dAYG7gL2RPaPPFIin-54" style="edgeStyle=orthogonalEdgeStyle;rounded=0;orthogonalLoop=1;jettySize=auto;html=1;entryX=1.1;entryY=0.8;entryDx=0;entryDy=0;entryPerimeter=0;" edge="1" parent="1" source="MO8dAYG7gL2RPaPPFIin-48" target="MO8dAYG7gL2RPaPPFIin-44">
          <mxGeometry relative="1" as="geometry" />
        </mxCell>
        <mxCell id="MO8dAYG7gL2RPaPPFIin-48" value="B&amp;lt;=C&amp;lt;=A" style="rhombus;whiteSpace=wrap;html=1;fillColor=#fff2cc;strokeColor=#d6b656;" vertex="1" parent="1">
          <mxGeometry x="85" y="428" width="80" height="82" as="geometry" />
        </mxCell>
        <mxCell id="MO8dAYG7gL2RPaPPFIin-49" value="C&amp;lt;=A&amp;lt;=B" style="rhombus;whiteSpace=wrap;html=1;fillColor=#fff2cc;strokeColor=#d6b656;" vertex="1" parent="1">
          <mxGeometry x="85" y="530" width="80" height="80" as="geometry" />
        </mxCell>
        <mxCell id="MO8dAYG7gL2RPaPPFIin-50" value="C&amp;lt;=B&amp;lt;=A" style="rhombus;whiteSpace=wrap;html=1;fillColor=#fff2cc;strokeColor=#d6b656;" vertex="1" parent="1">
          <mxGeometry x="90" y="655" width="80" height="80" as="geometry" />
        </mxCell>
        <mxCell id="MO8dAYG7gL2RPaPPFIin-51" value="A&amp;lt;=B&amp;lt;=C" style="rhombus;whiteSpace=wrap;html=1;fillColor=#fff2cc;strokeColor=#d6b656;" vertex="1" parent="1">
          <mxGeometry x="85" y="110" width="80" height="80" as="geometry" />
        </mxCell>
      </root>
    </mxGraphModel>
  </diagram>
</mxfile>
